<svg version="1.1" xmlns="http://www.w3.org/2000/svg" viewBox="0 0 756 587" width="2268" height="1761">
  <!-- svg-source:excalidraw -->
  
  <defs>
    <style class="style-fonts">
      @font-face {
        font-family: "Virgil";
        src: url("https://excalidraw.com/Virgil.woff2");
      }
      @font-face {
        font-family: "Cascadia";
        src: url("https://excalidraw.com/Cascadia.woff2");
      }
      @font-face {
        font-family: "Assistant";
        src: url("https://excalidraw.com/Assistant-Regular.woff2");
      }
    </style>
    
  </defs>
  <g stroke-linecap="round" transform="translate(10 10) rotate(0 75 32.5)"><path d="M0 0 C37.08 0.64, 75.33 -1.44, 150 0 M0 0 C37.94 0.45, 77.1 1.26, 150 0 M150 0 C149.3 24.32, 148.97 48.85, 150 65 M150 0 C149.29 18.83, 150.99 35.35, 150 65 M150 65 C94.88 64.32, 38.83 63.3, 0 65 M150 65 C102.14 64.31, 53.86 64.53, 0 65 M0 65 C-1.66 48.73, -1.47 31.97, 0 0 M0 65 C0.21 46.79, 1.42 29.01, 0 0" stroke="#1e1e1e" stroke-width="2" fill="none"></path></g><g stroke-linecap="round" transform="translate(10 512) rotate(0 75 32.5)"><path d="M0 0 C55.71 -1.63, 112.14 -2.1, 150 0 M0 0 C41.85 0.72, 85.42 -0.21, 150 0 M150 0 C148.7 12.44, 149.28 28.69, 150 65 M150 0 C150.19 20.15, 150.09 41.39, 150 65 M150 65 C117.94 65.19, 87.81 67.43, 0 65 M150 65 C108.61 64.44, 67.12 64.3, 0 65 M0 65 C-1.04 40.44, 0.22 11.73, 0 0 M0 65 C1.08 44.72, -0.3 22.65, 0 0" stroke="#1e1e1e" stroke-width="2" fill="none"></path></g><g stroke-linecap="round" transform="translate(220 10) rotate(0 75 32.5)"><path d="M0 0 C57.57 -0.54, 116.43 -1.41, 150 0 M0 0 C48.53 -1.43, 94.45 -1.85, 150 0 M150 0 C149.18 17.19, 150.02 31.31, 150 65 M150 0 C151.19 25.21, 149.6 50.47, 150 65 M150 65 C100.21 66.66, 49.12 65.04, 0 65 M150 65 C109.3 64.62, 70.3 63.95, 0 65 M0 65 C0.16 41.01, 0.95 19.83, 0 0 M0 65 C-1.09 44.37, -1.32 24.54, 0 0" stroke="#1e1e1e" stroke-width="2" fill="none"></path></g><g stroke-linecap="round" transform="translate(220 512) rotate(0 75 32.5)"><path d="M0 0 C42.47 -1.06, 86.03 -0.26, 150 0 M0 0 C58.99 -0.44, 119.21 -0.61, 150 0 M150 0 C150.21 12.5, 151.6 30.22, 150 65 M150 0 C149.53 16.01, 150.79 31.54, 150 65 M150 65 C107 66.72, 64.38 66.17, 0 65 M150 65 C107.36 63.74, 63.22 63.83, 0 65 M0 65 C0.54 40.9, 0.28 19.94, 0 0 M0 65 C-0.42 41.22, 0.28 19.01, 0 0" stroke="#1e1e1e" stroke-width="2" fill="none"></path></g><g stroke-linecap="round" transform="translate(596 10) rotate(0 75 32.5)"><path d="M0 0 C39.67 0.39, 80.61 2.98, 150 0 M0 0 C45.33 0.02, 90.77 0.31, 150 0 M150 0 C151.88 23.09, 149.03 44.4, 150 65 M150 0 C149.75 19.08, 149.24 39.13, 150 65 M150 65 C90.07 64.95, 31.21 64.48, 0 65 M150 65 C108.95 62.82, 67.65 63.45, 0 65 M0 65 C0.03 52.92, 1.06 36.37, 0 0 M0 65 C0.43 50.17, 0.88 33.77, 0 0" stroke="#1e1e1e" stroke-width="2" fill="none"></path></g><g stroke-linecap="round" transform="translate(596 512) rotate(0 75 32.5)"><path d="M0 0 C34.8 2.38, 65.75 -1.06, 150 0 M0 0 C38.71 0.56, 79.32 0.98, 150 0 M150 0 C149.48 14.93, 150.56 25.32, 150 65 M150 0 C150.06 19.97, 151.18 39.3, 150 65 M150 65 C102.67 64.07, 55.24 66.73, 0 65 M150 65 C119.22 63.59, 86.36 63.99, 0 65 M0 65 C1.14 46.75, -1.25 29.11, 0 0 M0 65 C0.42 48.07, -0.54 31.89, 0 0" stroke="#1e1e1e" stroke-width="2" fill="none"></path></g><g stroke-linecap="round" transform="translate(320 269) rotate(0 163 25)"><path d="M0 0 C84.42 -3.14, 168.19 -2.6, 326 0 M326 0 C326.22 12.71, 323.78 26.45, 326 50 M326 50 C202.62 50.27, 79.31 52.01, 0 50 M0 50 C1.99 36.42, 0.37 23.22, 0 0" stroke="#1e1e1e" stroke-width="2.5" fill="none" stroke-dasharray="8 10"></path></g><g stroke-linecap="round"><g transform="translate(85 75) rotate(0 0 218.5)"><path d="M0 0 C-0.25 169.1, -0.42 338.31, 0 437 M0 0 C0.23 121.11, 1.08 241.06, 0 437" stroke="#999" stroke-width="1" fill="none"></path></g></g><mask></mask><g stroke-linecap="round"><g transform="translate(295 75) rotate(0 0 218.5)"><path d="M0 0 C-1.34 93.55, -1.05 189.02, 0 437 M0 0 C-1.62 138.87, -1.67 278.29, 0 437" stroke="#999" stroke-width="1" fill="none"></path></g></g><mask></mask><g stroke-linecap="round"><g transform="translate(671 75) rotate(0 0 218.5)"><path d="M0 0 C-1.41 111.69, -0.99 221.83, 0 437 M0 0 C2.07 169.5, 1.27 339.04, 0 437" stroke="#999" stroke-width="1" fill="none"></path></g></g><mask></mask><g mask="url(#mask-Lff9tQRlFq7rHAlJ4GuUP)" stroke-linecap="round"><g transform="translate(85.5 111) rotate(0 104.5 0)"><path d="M0.37 0.22 C35.18 0.44, 172.98 1.2, 207.91 1.05 M-0.89 -0.71 C34.36 -0.77, 174.95 -0.69, 210.04 -0.51" stroke="#1e1e1e" stroke-width="2" fill="none"></path></g><g transform="translate(85.5 111) rotate(0 104.5 0)"><path d="M186.53 7.98 C192.1 4.21, 198.67 5.73, 210.04 -0.51 M186.53 7.98 C191.33 5.94, 198.37 3.42, 210.04 -0.51" stroke="#1e1e1e" stroke-width="2" fill="none"></path></g><g transform="translate(85.5 111) rotate(0 104.5 0)"><path d="M186.57 -9.12 C192.09 -9.12, 198.65 -3.83, 210.04 -0.51 M186.57 -9.12 C191.48 -6.96, 198.51 -5.28, 210.04 -0.51" stroke="#1e1e1e" stroke-width="2" fill="none"></path></g></g><mask id="mask-Lff9tQRlFq7rHAlJ4GuUP"><rect x="0" y="0" fill="#fff" width="395.5" height="211"></rect><rect x="136.384033203125" y="101" fill="#000" width="107.23193359375" height="20" opacity="1"></rect></mask><g mask="url(#mask-Wry3xJ2eGVmgIf6uxNSJh)" stroke-linecap="round"><g transform="translate(295.5 157) rotate(0 187.5 0)"><path d="M-1.09 1.05 C61.5 0.91, 313.12 -0.48, 375.94 -0.65 M0.53 0.56 C63.02 0.55, 313 0.42, 375.49 0.54" stroke="#1e1e1e" stroke-width="2" fill="none"></path></g><g transform="translate(295.5 157) rotate(0 187.5 0)"><path d="M351.99 9.08 C361.51 8.04, 366.45 5, 375.49 0.54 M351.99 9.08 C359.45 6.13, 365.97 4.16, 375.49 0.54" stroke="#1e1e1e" stroke-width="2" fill="none"></path></g><g transform="translate(295.5 157) rotate(0 187.5 0)"><path d="M352 -8.02 C361.55 -3.4, 366.48 -0.78, 375.49 0.54 M352 -8.02 C359.3 -5.85, 365.82 -2.7, 375.49 0.54" stroke="#1e1e1e" stroke-width="2" fill="none"></path></g></g><mask id="mask-Wry3xJ2eGVmgIf6uxNSJh"><rect x="0" y="0" fill="#fff" width="771.5" height="257"></rect><rect x="426.47203063964844" y="147" fill="#000" width="113.05593872070312" height="20" opacity="1"></rect></mask><g mask="url(#mask--sYmSD-H9rfSPijoL81L9)" stroke-linecap="round"><g transform="translate(670.5 203) rotate(0 -187.5 0)"><path d="M0.94 -0.65 C-61.24 -0.83, -311.34 -0.12, -374.18 -0.01 M-0.02 1.62 C-62.2 2.16, -312.41 1.56, -374.7 1.53" stroke="#1e1e1e" stroke-width="2" fill="none"></path></g><g transform="translate(670.5 203) rotate(0 -187.5 0)"><path d="M-351.2 -6.99 C-357.12 -3.67, -360.95 -5.08, -374.7 1.53 M-351.2 -6.99 C-358.49 -4.29, -364.52 -2.15, -374.7 1.53" stroke="#1e1e1e" stroke-width="2" fill="none"></path></g><g transform="translate(670.5 203) rotate(0 -187.5 0)"><path d="M-351.22 10.11 C-357.29 9.86, -361.12 4.88, -374.7 1.53 M-351.22 10.11 C-358.56 7.61, -364.59 4.55, -374.7 1.53" stroke="#1e1e1e" stroke-width="2" fill="none"></path></g></g><mask id="mask--sYmSD-H9rfSPijoL81L9"><rect x="0" y="0" fill="#fff" width="1146.5" height="303"></rect><rect x="410.4240188598633" y="193" fill="#000" width="145.15196228027344" height="20" opacity="1"></rect></mask><g mask="url(#mask-xIf9iLeLXqOcX6gHauL33)" stroke-linecap="round"><g transform="translate(294.5 249) rotate(0 -104.5 0)"><path d="M0.82 -0.01 C-34.36 0.11, -175.2 0.13, -210.1 0.05 M-0.21 -1.06 C-35.11 -0.67, -173.14 1.34, -207.96 1.61" stroke="#1e1e1e" stroke-width="2" fill="none"></path></g><g transform="translate(294.5 249) rotate(0 -104.5 0)"><path d="M-184.57 -7.21 C-193.48 -5.54, -202.24 0.32, -207.96 1.61 M-184.57 -7.21 C-189.75 -5.1, -196.68 -2.86, -207.96 1.61" stroke="#1e1e1e" stroke-width="2" fill="none"></path></g><g transform="translate(294.5 249) rotate(0 -104.5 0)"><path d="M-184.37 9.89 C-193.26 5.09, -202.1 4.48, -207.96 1.61 M-184.37 9.89 C-189.57 7.52, -196.55 5.3, -207.96 1.61" stroke="#1e1e1e" stroke-width="2" fill="none"></path></g></g><mask id="mask-xIf9iLeLXqOcX6gHauL33"><rect x="0" y="0" fill="#fff" width="604.5" height="349"></rect><rect x="140.8640365600586" y="239" fill="#000" width="98.27192687988281" height="20" opacity="1"></rect></mask><g mask="url(#mask-ehFQuT5O3pmeZIlBt-adS)" stroke-linecap="round"><g transform="translate(85.5 344) rotate(0 104.5 0)"><path d="M-1.1 0.05 C33.67 -0.03, 174.43 -0.49, 209.42 -0.46 M0.53 -0.97 C35.1 -0.88, 174.12 0.39, 208.69 0.83" stroke="#1e1e1e" stroke-width="2" fill="none"></path></g><g transform="translate(85.5 344) rotate(0 104.5 0)"><path d="M185.1 9.14 C193.87 6.99, 201.69 2.91, 208.69 0.83 M185.1 9.14 C192.71 6.23, 199.99 3.79, 208.69 0.83" stroke="#1e1e1e" stroke-width="2" fill="none"></path></g><g transform="translate(85.5 344) rotate(0 104.5 0)"><path d="M185.28 -7.96 C193.98 -3.82, 201.74 -1.61, 208.69 0.83 M185.28 -7.96 C193 -5.4, 200.22 -2.37, 208.69 0.83" stroke="#1e1e1e" stroke-width="2" fill="none"></path></g></g><mask id="mask-ehFQuT5O3pmeZIlBt-adS"><rect x="0" y="0" fill="#fff" width="395.5" height="444"></rect><rect x="117.25603485107422" y="324" fill="#000" width="145.48793029785156" height="40" opacity="1"></rect></mask><g mask="url(#mask-_vKyAFr8-4tGu8S_O4vv5)" stroke-linecap="round"><g transform="translate(295.5 390) rotate(0 187.5 0)"><path d="M0.42 -0.46 C63.06 -0.43, 312.18 0.21, 374.8 0.24 M-0.83 -1.75 C61.74 -2.11, 310.95 -2.19, 373.75 -1.76" stroke="#1e1e1e" stroke-width="2" fill="none"></path></g><g transform="translate(295.5 390) rotate(0 187.5 0)"><path d="M350.23 6.73 C354.37 4.55, 360.44 5.02, 373.75 -1.76 M350.23 6.73 C356.56 4.38, 362.79 1.9, 373.75 -1.76" stroke="#1e1e1e" stroke-width="2" fill="none"></path></g><g transform="translate(295.5 390) rotate(0 187.5 0)"><path d="M350.28 -10.37 C354.41 -8.99, 360.47 -4.95, 373.75 -1.76 M350.28 -10.37 C356.62 -8.02, 362.83 -5.79, 373.75 -1.76" stroke="#1e1e1e" stroke-width="2" fill="none"></path></g></g><mask id="mask-_vKyAFr8-4tGu8S_O4vv5"><rect x="0" y="0" fill="#fff" width="771.5" height="490"></rect><rect x="426.47203063964844" y="380" fill="#000" width="113.05593872070312" height="20" opacity="1"></rect></mask><g mask="url(#mask-Txt_inTewT8IWQcQPRuxz)" stroke-linecap="round"><g transform="translate(670.5 436) rotate(0 -187.5 0)"><path d="M-0.2 0.24 C-62.58 0.27, -311.42 -0.2, -373.86 -0.3 M-1.76 -0.68 C-64.24 -0.43, -311.91 0.84, -374.2 1.08" stroke="#1e1e1e" stroke-width="2" fill="none"></path></g><g transform="translate(670.5 436) rotate(0 -187.5 0)"><path d="M-350.75 -7.58 C-358.23 -2.81, -366.98 -1.54, -374.2 1.08 M-350.75 -7.58 C-357.43 -5.51, -362.41 -3.85, -374.2 1.08" stroke="#1e1e1e" stroke-width="2" fill="none"></path></g><g transform="translate(670.5 436) rotate(0 -187.5 0)"><path d="M-350.67 9.52 C-358.11 8.57, -366.89 4.12, -374.2 1.08 M-350.67 9.52 C-357.36 7, -362.35 4.05, -374.2 1.08" stroke="#1e1e1e" stroke-width="2" fill="none"></path></g></g><mask id="mask-Txt_inTewT8IWQcQPRuxz"><rect x="0" y="0" fill="#fff" width="1146.5" height="536"></rect><rect x="410.4240188598633" y="426" fill="#000" width="145.15196228027344" height="20" opacity="1"></rect></mask><g mask="url(#mask-zffJllNN1iGSo0pNsfg7m)" stroke-linecap="round"><g transform="translate(294.5 482) rotate(0 -104.5 0)"><path d="M1.14 -0.3 C-33.63 -0.4, -173.78 -0.4, -208.83 -0.37 M0.29 -1.5 C-34.61 -1.45, -174.64 0.53, -209.69 0.97" stroke="#1e1e1e" stroke-width="2" fill="none"></path></g><g transform="translate(294.5 482) rotate(0 -104.5 0)"><path d="M-186.31 -7.89 C-193.41 -4.87, -200.16 -2.91, -209.69 0.97 M-186.31 -7.89 C-192.17 -6.28, -199.51 -3.61, -209.69 0.97" stroke="#1e1e1e" stroke-width="2" fill="none"></path></g><g transform="translate(294.5 482) rotate(0 -104.5 0)"><path d="M-186.08 9.21 C-193.29 7.38, -200.1 4.5, -209.69 0.97 M-186.08 9.21 C-191.95 5.85, -199.35 3.55, -209.69 0.97" stroke="#1e1e1e" stroke-width="2" fill="none"></path></g></g><mask id="mask-zffJllNN1iGSo0pNsfg7m"><rect x="0" y="0" fill="#fff" width="604.5" height="582"></rect><rect x="119.73604583740234" y="472" fill="#000" width="140.5279083251953" height="20" opacity="1"></rect></mask><g transform="translate(67.12801361083984 32.5) rotate(0 17.871986389160156 10)"><text x="17.871986389160156" y="14.016" font-family="Virgil, Segoe UI Emoji" font-size="16px" fill="#000" text-anchor="middle" style="white-space: pre;" direction="ltr" dominant-baseline="alphabetic">User</text></g><g transform="translate(67.12801361083984 534.5) rotate(0 17.871986389160156 10)"><text x="17.871986389160156" y="14.016" font-family="Virgil, Segoe UI Emoji" font-size="16px" fill="#000" text-anchor="middle" style="white-space: pre;" direction="ltr" dominant-baseline="alphabetic">User</text></g><g transform="translate(264.280029296875 32.5) rotate(0 30.719970703125 10)"><text x="30.719970703125" y="14.016" font-family="Virgil, Segoe UI Emoji" font-size="16px" fill="#000" text-anchor="middle" style="white-space: pre;" direction="ltr" dominant-baseline="alphabetic">Browser</text></g><g transform="translate(264.280029296875 534.5) rotate(0 30.719970703125 10)"><text x="30.719970703125" y="14.016" font-family="Virgil, Segoe UI Emoji" font-size="16px" fill="#000" text-anchor="middle" style="white-space: pre;" direction="ltr" dominant-baseline="alphabetic">Browser</text></g><g transform="translate(646.3200149536133 32.5) rotate(0 24.67998504638672 10)"><text x="24.67998504638672" y="14.016" font-family="Virgil, Segoe UI Emoji" font-size="16px" fill="#000" text-anchor="middle" style="white-space: pre;" direction="ltr" dominant-baseline="alphabetic">Server</text></g><g transform="translate(646.3200149536133 534.5) rotate(0 24.67998504638672 10)"><text x="24.67998504638672" y="14.016" font-family="Virgil, Segoe UI Emoji" font-size="16px" fill="#000" text-anchor="middle" style="white-space: pre;" direction="ltr" dominant-baseline="alphabetic">Server</text></g><g transform="translate(339.4560852050781 274) rotate(0 143.54391479492188 20)"><text x="143.54391479492188" y="14.016" font-family="Virgil, Segoe UI Emoji" font-size="16px" fill="#000" text-anchor="middle" style="white-space: pre;" direction="ltr" dominant-baseline="alphabetic">Browser interprets HTML, CSS, and </text><text x="143.54391479492188" y="34.016" font-family="Virgil, Segoe UI Emoji" font-size="16px" fill="#000" text-anchor="middle" style="white-space: pre;" direction="ltr" dominant-baseline="alphabetic">JavaScript</text></g><g transform="translate(136.384033203125 101) rotate(0 53.69268591501748 10.171548162865719)"><text x="53.615966796875" y="14.016" font-family="Virgil, Segoe UI Emoji" font-size="16px" fill="#1e1e1e" text-anchor="middle" style="white-space: pre;" direction="ltr" dominant-baseline="alphabetic">Request page</text></g><g transform="translate(426.47203063964844 147) rotate(0 56.451604688167606 10.200909006595623)"><text x="56.52796936035156" y="14.016" font-family="Virgil, Segoe UI Emoji" font-size="16px" fill="#1e1e1e" text-anchor="middle" style="white-space: pre;" direction="ltr" dominant-baseline="alphabetic">HTTP request</text></g><g transform="translate(410.4240188598633 193) rotate(0 73.19480087023697 10.582646484427954)"><text x="72.57598114013672" y="14.016" font-family="Virgil, Segoe UI Emoji" font-size="16px" fill="#1e1e1e" text-anchor="middle" style="white-space: pre;" direction="ltr" dominant-baseline="alphabetic">HTML + CSS + JS</text></g><g transform="translate(140.8640365600586 239) rotate(0 48.99565604925158 10.279375268584118)"><text x="49.135963439941406" y="14.016" font-family="Virgil, Segoe UI Emoji" font-size="16px" fill="#1e1e1e" text-anchor="middle" style="white-space: pre;" direction="ltr" dominant-baseline="alphabetic">Display page</text></g><g transform="translate(117.25603485107422 324) rotate(0 72.40328429937364 19.932845336562025)"><text x="72.74396514892578" y="14.016" font-family="Virgil, Segoe UI Emoji" font-size="16px" fill="#1e1e1e" text-anchor="middle" style="white-space: pre;" direction="ltr" dominant-baseline="alphabetic">Navigate to next </text><text x="72.74396514892578" y="34.016" font-family="Virgil, Segoe UI Emoji" font-size="16px" fill="#1e1e1e" text-anchor="middle" style="white-space: pre;" direction="ltr" dominant-baseline="alphabetic">page</text></g><g transform="translate(426.47203063964844 380) rotate(0 56.01500414010604 9.095090697008288)"><text x="56.52796936035156" y="14.016" font-family="Virgil, Segoe UI Emoji" font-size="16px" fill="#1e1e1e" text-anchor="middle" style="white-space: pre;" direction="ltr" dominant-baseline="alphabetic">HTTP request</text></g><g transform="translate(410.4240188598633 426) rotate(0 72.87449144106824 10.201082774763904)"><text x="72.57598114013672" y="14.016" font-family="Virgil, Segoe UI Emoji" font-size="16px" fill="#1e1e1e" text-anchor="middle" style="white-space: pre;" direction="ltr" dominant-baseline="alphabetic">HTML + CSS + JS</text></g><g transform="translate(119.73604583740234 472) rotate(0 70.49304956656414 9.732861863737924)"><text x="70.26395416259766" y="14.016" font-family="Virgil, Segoe UI Emoji" font-size="16px" fill="#1e1e1e" text-anchor="middle" style="white-space: pre;" direction="ltr" dominant-baseline="alphabetic">Display next page</text></g></svg>