<svg version="1.1" xmlns="http://www.w3.org/2000/svg" viewBox="0 0 704.6837206762509 926.1177831286549" width="2114.0511620287525" height="2778.3533493859645" filter="invert(93%) hue-rotate(180deg)">
  <!-- svg-source:excalidraw -->
  
  <defs>
    <style class="style-fonts">
      @font-face {
        font-family: "Virgil";
        src: url("https://excalidraw.com/Virgil.woff2");
      }
      @font-face {
        font-family: "Cascadia";
        src: url("https://excalidraw.com/Cascadia.woff2");
      }
      @font-face {
        font-family: "Assistant";
        src: url("https://excalidraw.com/Assistant-Regular.woff2");
      }
    </style>
    
  </defs>
  <rect x="0" y="0" width="704.6837206762509" height="926.1177831286549" fill="#ffffff"></rect><g stroke-linecap="round" transform="translate(174.041490886297 10) rotate(0 150.4616065381718 23)"><path d="M0 0 C105.34 0.49, 210.82 -0.72, 300.92 0 M0 0 C89.86 -1.63, 180.38 -1.52, 300.92 0 M300.92 0 C300.33 17.19, 299.81 33.64, 300.92 46 M300.92 0 C299.77 18.21, 299.67 35.31, 300.92 46 M300.92 46 C200.21 47.08, 97.13 45.92, 0 46 M300.92 46 C191.37 44.83, 80.4 45.49, 0 46 M0 46 C-1.05 34.91, -2.12 22.5, 0 0 M0 46 C-0.08 33.62, 0.45 20.34, 0 0" stroke="#1e1e1e" stroke-width="2" fill="none"></path></g><g stroke-linecap="round" transform="translate(203.2733626253217 80.42808986062187) rotate(0 121.2297347991471 16.48316996737958)"><path d="M0 0 C78.34 -1.63, 158.63 -1.17, 242.46 0 M0 0 C89.63 0.24, 180.38 0.78, 242.46 0 M242.46 0 C240.87 11.31, 243.85 20.59, 242.46 32.97 M242.46 0 C241.29 10.34, 242.57 19.88, 242.46 32.97 M242.46 32.97 C171.57 34.99, 103.52 35.77, 0 32.97 M242.46 32.97 C176.59 31.7, 110.83 31.78, 0 32.97 M0 32.97 C-1.83 19.31, -0.16 5.73, 0 0 M0 32.97 C0.28 22.61, -0.77 10.46, 0 0" stroke="#1e1e1e" stroke-width="2" fill="none"></path></g><g stroke-linecap="round" transform="translate(235.66021611591515 150.8561797212435) rotate(0 88.84288130855364 88.84288130855361)"><path d="M89 0 C121.67 33.76, 156.27 65.42, 177.69 89 M89 0 C115.06 26.51, 140.54 51.18, 177.69 89 M177.69 89 C149.83 116.32, 119.43 145.04, 89 177.69 M177.69 89 C143.07 124.11, 108.39 158.46, 89 177.69 M89 177.69 C55.99 144.28, 19.28 110.04, 0 89 M89 177.69 C68.38 157.83, 49.45 136.76, 0 89 M0 89 C28.78 59.85, 57.9 32.14, 89 0 M0 89 C31.95 54.79, 65.84 22.07, 89 0" stroke="#1e1e1e" stroke-width="2" fill="none"></path></g><g stroke-linecap="round" transform="translate(10 387.73150722121386) rotate(0 181.16268128210143 16.48316996737958)"><path d="M0 0 C106.63 -1.24, 211.34 -0.89, 362.33 0 M0 0 C110.8 -1.91, 221.29 -2.08, 362.33 0 M362.33 0 C362.49 8.69, 364.29 18.77, 362.33 32.97 M362.33 0 C362.34 12.39, 363.36 23.17, 362.33 32.97 M362.33 32.97 C249.05 35.32, 135.63 33.89, 0 32.97 M362.33 32.97 C247.14 33.34, 130.87 33, 0 32.97 M0 32.97 C0.64 23.42, 1.46 15.65, 0 0 M0 32.97 C0.31 20.9, 1.15 9.85, 0 0" stroke="#1e1e1e" stroke-width="2" fill="none"></path></g><g stroke-linecap="round" transform="translate(412.3391942037649 742.2952634726521) rotate(0 141.17226323624303 16.48316996737958)"><path d="M0 0 C89.98 0.82, 180.32 2.33, 282.34 0 M0 0 C105 0.44, 209.73 1.58, 282.34 0 M282.34 0 C284.04 5.53, 283.52 15.42, 282.34 32.97 M282.34 0 C283.22 10.64, 282.42 22.99, 282.34 32.97 M282.34 32.97 C180.02 34.21, 80.16 33.92, 0 32.97 M282.34 32.97 C189.58 31.22, 96.31 31.86, 0 32.97 M0 32.97 C1.31 25.42, 0.92 15.43, 0 0 M0 32.97 C0.85 25.63, 0.97 18.87, 0 0" stroke="#1e1e1e" stroke-width="2" fill="none"></path></g><g stroke-linecap="round" transform="translate(89.55353800662488 479.88741203883603) rotate(0 101.60914327547653 101.60914327547653)"><path d="M102 0 C125.93 25.74, 151.17 49.3, 203.22 102 M102 0 C128.07 27.4, 152.88 52.49, 203.22 102 M203.22 102 C182.99 124.11, 160.3 145.42, 102 203.22 M203.22 102 C168.38 138, 132.97 172.93, 102 203.22 M102 203.22 C64.28 163.32, 25.64 127.71, 0 102 M102 203.22 C75.58 176.33, 49.38 151.06, 0 102 M0 102 C27.22 73.13, 51.58 48.03, 102 0 M0 102 C25.53 77.17, 50.12 50.31, 102 0" stroke="#1e1e1e" stroke-width="2" fill="none"></path></g><g stroke-linecap="round" transform="translate(29.667418711077914 742.2952634726521) rotate(0 65.82731869785178 16.48316996737958)"><path d="M0 0 C36.17 -0.12, 68.57 -0.34, 131.65 0 M0 0 C29.23 -1.06, 59.22 -0.16, 131.65 0 M131.65 0 C132.62 6.69, 132.94 15.66, 131.65 32.97 M131.65 0 C132.28 7.85, 132.5 15.58, 131.65 32.97 M131.65 32.97 C97.04 34.18, 60.36 32.63, 0 32.97 M131.65 32.97 C104.61 33.06, 78.42 33.47, 0 32.97 M0 32.97 C-1.71 22.57, -1.18 13.81, 0 0 M0 32.97 C-0.17 22.19, -0.76 13.79, 0 0" stroke="#1e1e1e" stroke-width="2" fill="none"></path></g><g stroke-linecap="round" transform="translate(198.7838060326441 742.2952634726521) rotate(0 88.04681912262906 16.48316996737958)"><path d="M0 0 C63.02 -0.14, 126.43 -0.39, 176.09 0 M0 0 C65.65 0.93, 131.99 0.67, 176.09 0 M176.09 0 C177.31 12.94, 175.16 22.47, 176.09 32.97 M176.09 0 C177.09 11.36, 175.96 24.33, 176.09 32.97 M176.09 32.97 C131.44 34.97, 86.64 33.98, 0 32.97 M176.09 32.97 C125.65 34.19, 76.09 34, 0 32.97 M0 32.97 C-0.76 27.73, 0.28 21.02, 0 0 M0 32.97 C-0.49 21.78, 0.73 9.49, 0 0" stroke="#1e1e1e" stroke-width="2" fill="none"></path></g><g stroke-linecap="round" transform="translate(130.36928523053746 812.723353333274) rotate(0 156.46133992473574 16.483169967379567)"><path d="M0 0 C104.03 -0.37, 211.22 -1.65, 312.92 0 M0 0 C91.86 -1.48, 185.27 -1.63, 312.92 0 M312.92 0 C312.04 9.75, 314.42 20.21, 312.92 32.97 M312.92 0 C312.86 9.11, 312.67 18.13, 312.92 32.97 M312.92 32.97 C188.05 32.88, 65.79 32.48, 0 32.97 M312.92 32.97 C209.88 34.9, 105.97 33.99, 0 32.97 M0 32.97 C0.19 24.97, 1.37 13.37, 0 0 M0 32.97 C0.92 26.12, 0.94 18.82, 0 0" stroke="#1e1e1e" stroke-width="2" fill="none"></path></g><g stroke-linecap="round" transform="translate(145.54129395051183 883.1514431938957) rotate(0 141.28933120476137 16.483169967379567)"><path d="M0 0 C92.83 -1.44, 183.24 -1.48, 282.58 0 M0 0 C109.23 -0.98, 217.81 -0.86, 282.58 0 M282.58 0 C283.72 14.06, 281.82 27.4, 282.58 32.97 M282.58 0 C281.95 7.84, 283.42 14.65, 282.58 32.97 M282.58 32.97 C192.77 31.34, 103.88 31.72, 0 32.97 M282.58 32.97 C177.17 33.47, 73.13 33.67, 0 32.97 M0 32.97 C1.2 20.57, -1.68 6.67, 0 0 M0 32.97 C0.54 20.91, -1.25 9.1, 0 0" stroke="#1e1e1e" stroke-width="2" fill="none"></path></g><g stroke-linecap="round"><g transform="translate(324.5033783875933 43.34095743401781) rotate(0 0 18.730874962931352)"><path d="M-0.43 -0.02 C-0.51 6.23, -0.43 31.63, -0.44 37.93 M0.36 -0.51 C0.43 5.56, 0.53 30.97, 0.57 37.21" stroke="#1e1e1e" stroke-width="2" fill="none"></path></g><g transform="translate(324.5033783875933 43.34095743401781) rotate(0 0 18.730874962931352)"><path d="M-5.92 19.64 C-3.87 24.4, -1 29.78, 0.57 37.21 M-5.92 19.64 C-3.61 26.2, -0.8 32.01, 0.57 37.21" stroke="#1e1e1e" stroke-width="2" fill="none"></path></g><g transform="translate(324.5033783875933 43.34095743401781) rotate(0 0 18.730874962931352)"><path d="M6.89 19.58 C4.95 24.31, 3.81 29.71, 0.57 37.21 M6.89 19.58 C4.6 26.18, 2.81 32.01, 0.57 37.21" stroke="#1e1e1e" stroke-width="2" fill="none"></path></g></g><mask></mask><g stroke-linecap="round"><g transform="translate(324.87799588685186 113.76904729463968) rotate(0 -0.1873087496293131 18.91818371256062)"><path d="M-0.44 0.47 C-0.51 6.84, -0.92 31.9, -0.87 38.16 M0.34 0.24 C0.46 6.45, 0.23 31.22, 0.11 37.37" stroke="#1e1e1e" stroke-width="2" fill="none"></path></g><g transform="translate(324.87799588685186 113.76904729463968) rotate(0 -0.1873087496293131 18.91818371256062)"><path d="M-6.12 19.5 C-3.93 22.65, -2.79 27.83, 0.11 37.37 M-6.12 19.5 C-3.59 25.29, -1.86 31.9, 0.11 37.37" stroke="#1e1e1e" stroke-width="2" fill="none"></path></g><g transform="translate(324.87799588685186 113.76904729463968) rotate(0 -0.1873087496293131 18.91818371256062)"><path d="M6.82 19.68 C6.13 22.73, 4.39 27.87, 0.11 37.37 M6.82 19.68 C4.97 25.43, 2.32 31.99, 0.11 37.37" stroke="#1e1e1e" stroke-width="2" fill="none"></path></g></g><mask></mask><g mask="url(#mask-W3muUGJDzYxL-mebw1yZB)" stroke-linecap="round"><g transform="translate(277.8267872149669 282.2405305912321) rotate(0 -43.33200613924532 52.93270341024538)"><path d="M-1.08 0.71 C-15.29 13.36, -71.93 59.27, -86.22 76.9 C-100.5 94.54, -86.91 101.8, -86.8 106.52 M0.55 0.04 C-13.69 12.84, -72.23 57.61, -86.93 75.02 C-101.63 92.44, -87.39 99.36, -87.64 104.52" stroke="#1e1e1e" stroke-width="2" fill="none"></path></g><g transform="translate(277.8267872149669 282.2405305912321) rotate(0 -43.33200613924532 52.93270341024538)"><path d="M-98.07 94.14 C-94.81 97.07, -92.82 98.64, -87.64 104.52 M-98.07 94.14 C-94.19 98.36, -90.15 101.34, -87.64 104.52" stroke="#1e1e1e" stroke-width="2" fill="none"></path></g><g transform="translate(277.8267872149669 282.2405305912321) rotate(0 -43.33200613924532 52.93270341024538)"><path d="M-88.96 89.87 C-87.67 93.65, -87.68 96.16, -87.64 104.52 M-88.96 89.87 C-88.27 95.55, -87.46 100.05, -87.64 104.52" stroke="#1e1e1e" stroke-width="2" fill="none"></path></g></g><mask id="mask-W3muUGJDzYxL-mebw1yZB"><rect x="0" y="0" fill="#fff" width="464.49079949345753" height="488.1059374117229"></rect><rect x="178.94399441889811" y="350.06129784485915" fill="#000" width="24.43756103515625" height="17.23240496589682" opacity="1"></rect></mask><g mask="url(#mask-3K66ntGW6erkjGQPF2B39)" stroke-linecap="round"><g transform="translate(383.4359556659648 270.73303024900565) rotate(0 85.03779771420898 235.96856584301474)"><path d="M0.45 0.46 C28.95 15.05, 141.49 9.72, 169.94 88.2 C198.39 166.67, 171.12 407.21, 171.17 471.3 M-0.78 -0.34 C27.65 13.83, 140.3 7.65, 168.92 86.42 C197.55 165.19, 170.71 408.26, 170.98 472.28" stroke="#1e1e1e" stroke-width="2" fill="none"></path></g><g transform="translate(383.4359556659648 270.73303024900565) rotate(0 85.03779771420898 235.96856584301474)"><path d="M163.61 448.39 C166.07 453.16, 167.93 460.21, 170.98 472.28 M163.61 448.39 C166.04 453.95, 168.08 459.44, 170.98 472.28" stroke="#1e1e1e" stroke-width="2" fill="none"></path></g><g transform="translate(383.4359556659648 270.73303024900565) rotate(0 85.03779771420898 235.96856584301474)"><path d="M180.69 449.25 C179.56 453.9, 177.84 460.77, 170.98 472.28 M180.69 449.25 C178.9 454.71, 176.73 459.99, 170.98 472.28" stroke="#1e1e1e" stroke-width="2" fill="none"></path></g></g><mask id="mask-3K66ntGW6erkjGQPF2B39"><rect x="0" y="0" fill="#fff" width="653.5115510943828" height="842.6701619350351"></rect><rect x="543.9369356158671" y="349.65931514242254" fill="#000" width="19.14923095703125" height="17.23240496589682" opacity="1"></rect></mask><g stroke-linecap="round"><g transform="translate(191.53739243573486 421.072277346482) rotate(0 -0.18730874962930955 29.78209119106083)"><path d="M-0.13 0.65 C-0.09 10.4, 0.73 48.98, 0.72 58.93 M-1.66 -0.05 C-1.72 9.8, 0.22 50.39, 0.34 60.13" stroke="#1e1e1e" stroke-width="2" fill="none"></path></g><g transform="translate(191.53739243573486 421.072277346482) rotate(0 -0.18730874962930955 29.78209119106083)"><path d="M-8.96 36.93 C-4.64 46.59, -3.65 52.82, 0.34 60.13 M-8.96 36.93 C-4.61 44.74, -2.34 54.14, 0.34 60.13" stroke="#1e1e1e" stroke-width="2" fill="none"></path></g><g transform="translate(191.53739243573486 421.072277346482) rotate(0 -0.18730874962930955 29.78209119106083)"><path d="M8.13 36.38 C6.69 46.2, 1.91 52.63, 0.34 60.13 M8.13 36.38 C6.23 44.34, 2.24 53.94, 0.34 60.13" stroke="#1e1e1e" stroke-width="2" fill="none"></path></g></g><mask></mask><g mask="url(#mask-ca2kEWNMd0koybXmKqpoF)" stroke-linecap="round"><g transform="translate(148.69014134053018 641.0079634562261) rotate(0 -26.59784244736248 50.83109923940452)"><path d="M1.09 -0.64 C-7.73 11.42, -44.13 56.03, -53.06 73.02 C-61.99 90.01, -52.63 96.68, -52.49 101.31 M0.21 1.64 C-8.75 13.31, -45.08 54.51, -53.93 71.31 C-62.78 88.11, -53.3 97.41, -52.89 102.44" stroke="#1e1e1e" stroke-width="2" fill="none"></path></g><g transform="translate(148.69014134053018 641.0079634562261) rotate(0 -26.59784244736248 50.83109923940452)"><path d="M-62.32 91.14 C-60.31 94.49, -55.84 98.44, -52.89 102.44 M-62.32 91.14 C-59.91 94.41, -57.5 97.53, -52.89 102.44" stroke="#1e1e1e" stroke-width="2" fill="none"></path></g><g transform="translate(148.69014134053018 641.0079634562261) rotate(0 -26.59784244736248 50.83109923940452)"><path d="M-52.84 87.72 C-53.56 92.14, -51.82 97.09, -52.89 102.44 M-52.84 87.72 C-52.98 91.85, -53.13 95.9, -52.89 102.44" stroke="#1e1e1e" stroke-width="2" fill="none"></path></g></g><mask id="mask-ca2kEWNMd0koybXmKqpoF"><rect x="0" y="0" fill="#fff" width="301.8858262352552" height="842.6701619350351"></rect><rect x="83.27567592822709" y="704.6168474549262" fill="#000" width="24.43756103515625" height="17.23240496589682" opacity="1"></rect></mask><g mask="url(#mask-iWP_flgvqctR7X8ALZQxh)" stroke-linecap="round"><g transform="translate(234.38389429594102 641.0079634562261) rotate(0 26.223224948103855 50.83109923940452)"><path d="M0.14 0.79 C8.82 12.88, 44.27 55.2, 53.15 71.87 C62.03 88.54, 53.6 95.81, 53.41 100.81 M-1.25 0.16 C7.24 12.48, 43.5 56.3, 52.57 73.22 C61.64 90.14, 53.24 96.7, 53.16 101.68" stroke="#1e1e1e" stroke-width="2" fill="none"></path></g><g transform="translate(234.38389429594102 641.0079634562261) rotate(0 26.223224948103855 50.83109923940452)"><path d="M52.51 86.98 C53.66 93.59, 52.51 99.67, 53.16 101.68 M52.51 86.98 C52.23 90.56, 53.46 93.38, 53.16 101.68" stroke="#1e1e1e" stroke-width="2" fill="none"></path></g><g transform="translate(234.38389429594102 641.0079634562261) rotate(0 26.223224948103855 50.83109923940452)"><path d="M62.12 90 C59.52 95.44, 54.61 100.34, 53.16 101.68 M62.12 90 C59.64 92.91, 58.67 95.04, 53.16 101.68" stroke="#1e1e1e" stroke-width="2" fill="none"></path></g></g><mask id="mask-iWP_flgvqctR7X8ALZQxh"><rect x="0" y="0" fill="#fff" width="386.8303441921487" height="842.6701619350351"></rect><rect x="277.25572871363306" y="704.6168474549262" fill="#000" width="19.14923095703125" height="17.23240496589682" opacity="1"></rect></mask><g stroke-linecap="round"><g transform="translate(95.8690739450638 775.6365018697942) rotate(0 50.88729186429332 18.730874962931352)"><path d="M0.7 -0.35 C17.8 5.62, 85.96 30.27, 102.74 36.61 M-0.39 -1.58 C16.63 4.45, 85.5 30.92, 102.3 37.7" stroke="#1e1e1e" stroke-width="2" fill="none"></path></g><g transform="translate(95.8690739450638 775.6365018697942) rotate(0 50.88729186429332 18.730874962931352)"><path d="M77.31 37.09 C84.51 38.75, 91.47 36.67, 102.3 37.7 M77.31 37.09 C86.24 36.75, 93.45 36.42, 102.3 37.7" stroke="#1e1e1e" stroke-width="2" fill="none"></path></g><g transform="translate(95.8690739450638 775.6365018697942) rotate(0 50.88729186429332 18.730874962931352)"><path d="M83.55 21.17 C88.92 27.82, 93.93 30.71, 102.3 37.7 M83.55 21.17 C90.4 25.94, 95.62 30.69, 102.3 37.7" stroke="#1e1e1e" stroke-width="2" fill="none"></path></g></g><mask></mask><g stroke-linecap="round"><g transform="translate(553.1369335951241 775.6365018697942) rotate(0 -70.92595651713653 18.730874962931352)"><path d="M0.97 -0.85 C-22.86 5.49, -118.34 31.25, -142.24 37.7 M0.02 1.32 C-24.06 7.3, -119.47 29.97, -143.4 35.7" stroke="#1e1e1e" stroke-width="2" fill="none"></path></g><g transform="translate(553.1369335951241 775.6365018697942) rotate(0 -70.92595651713653 18.730874962931352)"><path d="M-122.53 21.93 C-131.47 26.38, -137.15 30.94, -143.4 35.7 M-122.53 21.93 C-129.1 25.37, -136.46 30.74, -143.4 35.7" stroke="#1e1e1e" stroke-width="2" fill="none"></path></g><g transform="translate(553.1369335951241 775.6365018697942) rotate(0 -70.92595651713653 18.730874962931352)"><path d="M-118.56 38.57 C-128.88 37.08, -135.97 35.68, -143.4 35.7 M-118.56 38.57 C-126.59 36.52, -135.26 36.41, -143.4 35.7" stroke="#1e1e1e" stroke-width="2" fill="none"></path></g></g><mask></mask><g stroke-linecap="round"><g transform="translate(286.8303441921487 775.6365018697942) rotate(0 0 18.730874962931352)"><path d="M-0.18 0.11 C-0.3 6.44, -0.4 31.44, -0.28 37.62 M0.73 -0.31 C0.75 5.88, 0.85 30.41, 0.8 36.74" stroke="#1e1e1e" stroke-width="2" fill="none"></path></g><g transform="translate(286.8303441921487 775.6365018697942) rotate(0 0 18.730874962931352)"><path d="M-5.59 19.13 C-3.03 25.36, -0.51 33.43, 0.8 36.74 M-5.59 19.13 C-4.1 23.56, -2.61 28.25, 0.8 36.74" stroke="#1e1e1e" stroke-width="2" fill="none"></path></g><g transform="translate(286.8303441921487 775.6365018697942) rotate(0 0 18.730874962931352)"><path d="M7.23 19.14 C4.9 25.35, 2.55 33.41, 0.8 36.74 M7.23 19.14 C5.46 23.51, 3.69 28.19, 0.8 36.74" stroke="#1e1e1e" stroke-width="2" fill="none"></path></g></g><mask></mask><g stroke-linecap="round"><g transform="translate(286.8303441921487 846.0645917304162) rotate(0 0 18.730874962931324)"><path d="M-0.28 0.16 C-0.17 6.34, 0.46 31.08, 0.52 37.21 M0.57 -0.23 C0.68 6.01, 0.49 31.53, 0.36 37.78" stroke="#1e1e1e" stroke-width="2" fill="none"></path></g><g transform="translate(286.8303441921487 846.0645917304162) rotate(0 0 18.730874962931324)"><path d="M-5.83 20.1 C-3.89 25.73, -2.93 29.73, 0.36 37.78 M-5.83 20.1 C-4.9 23.79, -3.54 27.53, 0.36 37.78" stroke="#1e1e1e" stroke-width="2" fill="none"></path></g><g transform="translate(286.8303441921487 846.0645917304162) rotate(0 0 18.730874962931324)"><path d="M6.98 20.26 C5.5 25.81, 3.03 29.77, 0.36 37.78 M6.98 20.26 C5.34 23.91, 4.12 27.62, 0.36 37.78" stroke="#1e1e1e" stroke-width="2" fill="none"></path></g></g><mask></mask><g transform="translate(209.20186604019145 24.383797517051562) rotate(0 115.30123138427734 8.616202482948438)"><text x="115.30123138427734" y="13.78621664263875" font-family="Helvetica, Segoe UI Emoji" font-size="14.98469997034506px" fill="#1e1e1e" text-anchor="middle" style="white-space: pre;" direction="ltr" dominant-baseline="alphabetic">Start: Initial &amp; Desired DOM States</text></g><g transform="translate(226.68333424087507 88.29505734505301) rotate(0 97.81976318359375 8.616202482948438)"><text x="97.81976318359375" y="13.78621664263875" font-family="Helvetica, Segoe UI Emoji" font-size="14.98469997034506px" fill="#1e1e1e" text-anchor="middle" style="white-space: pre;" direction="ltr" dominant-baseline="alphabetic">Node Matching across DOMs</text></g><g transform="translate(293.7732003492935 222.54521540962355) rotate(0 30.808456420898438 17.23240496589682)"><text x="30.808456420898438" y="13.78621664263875" font-family="Helvetica, Segoe UI Emoji" font-size="14.98469997034506px" fill="#1e1e1e" text-anchor="middle" style="white-space: pre;" direction="ltr" dominant-baseline="alphabetic">Matched </text><text x="30.808456420898438" y="31.018621608535568" font-family="Helvetica, Segoe UI Emoji" font-size="14.98469997034506px" fill="#1e1e1e" text-anchor="middle" style="white-space: pre;" direction="ltr" dominant-baseline="alphabetic">Nodes?</text></g><g transform="translate(53.78276795202328 395.598474705645) rotate(0 137.37991333007812 8.616202482948438)"><text x="137.37991333007812" y="13.78621664263875" font-family="Helvetica, Segoe UI Emoji" font-size="14.98469997034506px" fill="#1e1e1e" text-anchor="middle" style="white-space: pre;" direction="ltr" dominant-baseline="alphabetic">Compare Elements, Attributes, &amp; Content</text></g><g transform="translate(441.9478511778009 750.1622309570832) rotate(0 111.56360626220702 8.61620248294841)"><text x="111.56360626220703" y="13.78621664263875" font-family="Helvetica, Segoe UI Emoji" font-size="14.98469997034506px" fill="#1e1e1e" text-anchor="middle" style="white-space: pre;" direction="ltr" dominant-baseline="alphabetic">Adjust DOM: Add/Remove Nodes</text></g><g transform="translate(151.52729909748814 564.4595787106775) rotate(0 39.830810546875 17.23240496589682)"><text x="39.830810546875" y="13.78621664263875" font-family="Helvetica, Segoe UI Emoji" font-size="14.98469997034506px" fill="#1e1e1e" text-anchor="middle" style="white-space: pre;" direction="ltr" dominant-baseline="alphabetic">Differences </text><text x="39.830810546875" y="31.018621608535568" font-family="Helvetica, Segoe UI Emoji" font-size="14.98469997034506px" fill="#1e1e1e" text-anchor="middle" style="white-space: pre;" direction="ltr" dominant-baseline="alphabetic">Found?</text></g><g transform="translate(46.780519269281285 750.1622309570832) rotate(0 48.71421813964844 8.61620248294841)"><text x="48.71421813964844" y="13.78621664263875" font-family="Helvetica, Segoe UI Emoji" font-size="14.98469997034506px" fill="#1e1e1e" text-anchor="middle" style="white-space: pre;" direction="ltr" dominant-baseline="alphabetic">Apply Updates</text></g><g transform="translate(218.95985183984345 750.1622309570832) rotate(0 67.87077331542969 8.61620248294841)"><text x="67.87077331542969" y="13.78621664263875" font-family="Helvetica, Segoe UI Emoji" font-size="14.98469997034506px" fill="#1e1e1e" text-anchor="middle" style="white-space: pre;" direction="ltr" dominant-baseline="alphabetic">No Updates Needed</text></g><g transform="translate(163.61144027978492 820.5903208177051) rotate(0 123.21918487548828 8.61620248294841)"><text x="123.21918487548828" y="13.78621664263875" font-family="Helvetica, Segoe UI Emoji" font-size="14.98469997034506px" fill="#1e1e1e" text-anchor="middle" style="white-space: pre;" direction="ltr" dominant-baseline="alphabetic">DOM Updated with Minimal Changes</text></g><g transform="translate(175.27069626123023 891.0184106783269) rotate(0 111.55992889404297 8.61620248294841)"><text x="111.55992889404297" y="13.78621664263875" font-family="Helvetica, Segoe UI Emoji" font-size="14.98469997034506px" fill="#1e1e1e" text-anchor="middle" style="white-space: pre;" direction="ltr" dominant-baseline="alphabetic">End: DOM Reflects Desired State</text></g><g transform="translate(178.94399441889811 350.06129784485915) rotate(0 52.362116169398746 -14.540476395512087)"><text x="12.218780517578125" y="13.78621664263875" font-family="Helvetica, Segoe UI Emoji" font-size="14.98469997034506px" fill="#1e1e1e" text-anchor="middle" style="white-space: pre;" direction="ltr" dominant-baseline="alphabetic">Yes</text></g><g transform="translate(543.9369356158671 349.65931514242254) rotate(0 -69.43786080804477 157.04765711383115)"><text x="9.574615478515625" y="13.78621664263875" font-family="Helvetica, Segoe UI Emoji" font-size="14.98469997034506px" fill="#1e1e1e" text-anchor="middle" style="white-space: pre;" direction="ltr" dominant-baseline="alphabetic">No</text></g><g transform="translate(83.27567592822709 704.6168474549262) rotate(0 37.11370401328374 -12.70633686372122)"><text x="12.218780517578125" y="13.78621664263875" font-family="Helvetica, Segoe UI Emoji" font-size="14.98469997034506px" fill="#1e1e1e" text-anchor="middle" style="white-space: pre;" direction="ltr" dominant-baseline="alphabetic">Yes</text></g><g transform="translate(277.2557287136331 704.6168474549262) rotate(0 -14.891328836148528 -12.686307969070441)"><text x="9.574615478515625" y="13.78621664263875" font-family="Helvetica, Segoe UI Emoji" font-size="14.98469997034506px" fill="#1e1e1e" text-anchor="middle" style="white-space: pre;" direction="ltr" dominant-baseline="alphabetic">No</text></g></svg>