<svg version="1.1" xmlns="http://www.w3.org/2000/svg" viewBox="0 0 937 728" width="2811" height="2184" filter="invert(93%) hue-rotate(180deg)">
  <!-- svg-source:excalidraw -->
  
  <defs>
    <style class="style-fonts">
      @font-face {
        font-family: "Virgil";
        src: url("https://excalidraw.com/Virgil.woff2");
      }
      @font-face {
        font-family: "Cascadia";
        src: url("https://excalidraw.com/Cascadia.woff2");
      }
      @font-face {
        font-family: "Assistant";
        src: url("https://excalidraw.com/Assistant-Regular.woff2");
      }
    </style>
    
  </defs>
  <rect x="0" y="0" width="937" height="728" fill="#ffffff"></rect><g stroke-linecap="round" transform="translate(10 10) rotate(0 75 32.5)"><path d="M0 0 C44.33 -1.73, 89.46 -1.12, 150 0 M0 0 C56.24 -1.2, 113 -1.75, 150 0 M150 0 C151.82 15.7, 151.57 30.17, 150 65 M150 0 C151.45 14.98, 149.9 31.84, 150 65 M150 65 C119.06 62.94, 84.6 65.11, 0 65 M150 65 C97.15 63.77, 45.98 63.84, 0 65 M0 65 C-1.76 51.17, -0.69 36.74, 0 0 M0 65 C-0.21 42.02, -0.62 19.16, 0 0" stroke="#1e1e1e" stroke-width="2" fill="none"></path></g><g stroke-linecap="round" transform="translate(10 653) rotate(0 75 32.5)"><path d="M0 0 C51.82 0.34, 104.73 -0.99, 150 0 M0 0 C58.97 -0.7, 119.16 0.42, 150 0 M150 0 C151.42 19.32, 149.22 37.74, 150 65 M150 0 C150.08 24.79, 149.77 47.66, 150 65 M150 65 C116.2 65.82, 86.69 63.57, 0 65 M150 65 C119.22 65.39, 86.51 65.58, 0 65 M0 65 C0.05 41.73, 1.46 15.17, 0 0 M0 65 C-0.43 42.96, -0.46 22.02, 0 0" stroke="#1e1e1e" stroke-width="2" fill="none"></path></g><g stroke-linecap="round" transform="translate(249 10) rotate(0 75 32.5)"><path d="M0 0 C38.55 -1.45, 75.9 -1.16, 150 0 M0 0 C48.69 1.24, 98.71 1.01, 150 0 M150 0 C149.14 24.81, 151.79 48.74, 150 65 M150 0 C148.76 14.34, 148.78 30.8, 150 65 M150 65 C111.75 65.2, 69.73 64.98, 0 65 M150 65 C102.41 65.69, 57.06 64.54, 0 65 M0 65 C1.12 41.95, 0.77 17.85, 0 0 M0 65 C-0.19 47.65, 0.69 30.43, 0 0" stroke="#1e1e1e" stroke-width="2" fill="none"></path></g><g stroke-linecap="round" transform="translate(249 653) rotate(0 75 32.5)"><path d="M0 0 C43.52 -0.16, 83.65 -0.64, 150 0 M0 0 C41 -0.66, 83 -0.79, 150 0 M150 0 C151.07 25.25, 148.28 45.42, 150 65 M150 0 C148.57 23.52, 149.05 45.28, 150 65 M150 65 C92.73 63.3, 39.34 65.6, 0 65 M150 65 C102.88 64.83, 54.64 65.37, 0 65 M0 65 C0.31 39.29, -0.95 12.87, 0 0 M0 65 C0.71 49.13, 0.06 33.09, 0 0" stroke="#1e1e1e" stroke-width="2" fill="none"></path></g><g stroke-linecap="round" transform="translate(520 10) rotate(0 75 32.5)"><path d="M0 0 C32.12 -0.85, 62.55 -0.4, 150 0 M0 0 C58.54 -0.44, 116.47 -1.54, 150 0 M150 0 C149.14 22.99, 151.57 46.48, 150 65 M150 0 C149.06 13.26, 150.14 28.68, 150 65 M150 65 C111.63 65.44, 73.15 62.84, 0 65 M150 65 C99.78 63.65, 49.27 64.35, 0 65 M0 65 C-0.84 43.04, -1.22 21.95, 0 0 M0 65 C-0.51 45.36, -1.09 24.09, 0 0" stroke="#1e1e1e" stroke-width="2" fill="none"></path></g><g stroke-linecap="round" transform="translate(520 653) rotate(0 75 32.5)"><path d="M0 0 C33.15 -0.05, 69.05 1.08, 150 0 M0 0 C55.04 -1.35, 109.63 -0.03, 150 0 M150 0 C150.66 24.15, 147.9 50.1, 150 65 M150 0 C150.45 23, 149.32 44.13, 150 65 M150 65 C113.4 64.57, 76.78 67.67, 0 65 M150 65 C117.27 65.16, 82.9 64.99, 0 65 M0 65 C-0.81 44.87, 0.39 27.48, 0 0 M0 65 C-0.67 42.72, -0.57 20.89, 0 0" stroke="#1e1e1e" stroke-width="2" fill="none"></path></g><g stroke-linecap="round" transform="translate(777 10) rotate(0 75 32.5)"><path d="M0 0 C31.82 0.74, 61.45 2.35, 150 0 M0 0 C53.28 1.62, 106.12 0.22, 150 0 M150 0 C148.69 14.12, 151.28 30.9, 150 65 M150 0 C150.03 13.19, 149.92 28.33, 150 65 M150 65 C96.47 65.72, 39.87 65.21, 0 65 M150 65 C108.51 66.04, 66.49 65.41, 0 65 M0 65 C0.52 49.29, 0.98 31.5, 0 0 M0 65 C-0.19 41.5, 1.26 20.31, 0 0" stroke="#1e1e1e" stroke-width="2" fill="none"></path></g><g stroke-linecap="round" transform="translate(777 653) rotate(0 75 32.5)"><path d="M0 0 C34.73 1.51, 67.95 1.47, 150 0 M0 0 C37.09 -1.76, 71.65 -0.55, 150 0 M150 0 C150.39 13.04, 147.8 29.01, 150 65 M150 0 C149.19 22.8, 150.34 45.54, 150 65 M150 65 C113.72 67.54, 80.02 68.18, 0 65 M150 65 C97.64 65.15, 44.93 64.96, 0 65 M0 65 C0.58 48.18, 0.89 30.71, 0 0 M0 65 C1.19 50.42, -0.33 34.56, 0 0" stroke="#1e1e1e" stroke-width="2" fill="none"></path></g><g stroke-linecap="round" transform="translate(60 85) rotate(0 144.5 19.5)"><path d="M0 0 C81.49 -0.43, 160.57 -0.23, 289 0 M289 0 C288.26 15.64, 287.63 27.43, 289 39 M289 39 C225.82 39.21, 165.88 37.53, 0 39 M0 39 C1.45 31.23, -1.16 23.45, 0 0" stroke="#1e1e1e" stroke-width="2.5" fill="none" stroke-dasharray="8 10"></path></g><g stroke-linecap="round" transform="translate(60 318) rotate(0 144.5 19.5)"><path d="M0 0 C103.08 -0.19, 209.05 0.22, 289 0 M289 0 C287.03 7.44, 287.07 19.13, 289 39 M289 39 C214.15 39.88, 136.47 39.71, 0 39 M0 39 C-1.61 27.58, 1.5 13.1, 0 0" stroke="#1e1e1e" stroke-width="2.5" fill="none" stroke-dasharray="8 10"></path></g><g stroke-linecap="round"><g transform="translate(85 75) rotate(0 0 289)"><path d="M0 0 C-0.79 207.76, -1.9 413.48, 0 578 M0 0 C-2.37 205.22, -2.18 409.74, 0 578" stroke="#999" stroke-width="1" fill="none"></path></g></g><mask></mask><g stroke-linecap="round"><g transform="translate(324 75) rotate(0 0 289)"><path d="M0 0 C1.16 214, 2.13 428.21, 0 578 M0 0 C-2.14 125.01, -1.7 250.87, 0 578" stroke="#999" stroke-width="1" fill="none"></path></g></g><mask></mask><g stroke-linecap="round"><g transform="translate(595 75) rotate(0 0 289)"><path d="M0 0 C-1.1 229.65, -2.21 460.02, 0 578 M0 0 C-0.61 200.41, -1.06 400.08, 0 578" stroke="#999" stroke-width="1" fill="none"></path></g></g><mask></mask><g stroke-linecap="round"><g transform="translate(852 75) rotate(0 0 289)"><path d="M0 0 C0.6 140.13, 1.64 281.33, 0 578 M0 0 C1.44 125.01, 1.4 250.8, 0 578" stroke="#999" stroke-width="1" fill="none"></path></g></g><mask></mask><g mask="url(#mask-283PX9IZ6OptLYshiufBc)" stroke-linecap="round"><g transform="translate(85.5 160) rotate(0 119 0)"><path d="M-1.03 0.56 C38.74 0.56, 197.56 -1, 237.54 -1 M0.63 -0.2 C40.29 0.01, 196.7 0.23, 236.35 0.02" stroke="#1e1e1e" stroke-width="2" fill="none"></path></g><g transform="translate(85.5 160) rotate(0 119 0)"><path d="M212.87 8.6 C218.86 6.21, 221.25 6.55, 236.35 0.02 M212.87 8.6 C220.56 5.95, 229.9 3.02, 236.35 0.02" stroke="#1e1e1e" stroke-width="2" fill="none"></path></g><g transform="translate(85.5 160) rotate(0 119 0)"><path d="M212.84 -8.5 C218.69 -7.26, 221.1 -3.29, 236.35 0.02 M212.84 -8.5 C220.47 -5.19, 229.82 -2.15, 236.35 0.02" stroke="#1e1e1e" stroke-width="2" fill="none"></path></g></g><mask id="mask-283PX9IZ6OptLYshiufBc"><rect x="0" y="0" fill="#fff" width="424.5" height="260"></rect><rect x="119.15603637695312" y="140" fill="#000" width="170.68792724609375" height="40" opacity="1"></rect></mask><g mask="url(#mask-cKtw-XAXJJbgimJ7PaQM-)" stroke-linecap="round"><g transform="translate(324.5 206) rotate(0 263.5 0)"><path d="M-0.46 -1 C87.68 -0.99, 440.01 0.6, 527.84 0.59 M1.5 1.09 C89.65 0.7, 440 -0.99, 527.33 -1.23" stroke="#1e1e1e" stroke-width="2" fill="none"></path></g><g transform="translate(324.5 206) rotate(0 263.5 0)"><path d="M503.87 7.41 C507.19 7.05, 514.86 2.95, 527.33 -1.23 M503.87 7.41 C509.45 5.77, 513.06 4.15, 527.33 -1.23" stroke="#1e1e1e" stroke-width="2" fill="none"></path></g><g transform="translate(324.5 206) rotate(0 263.5 0)"><path d="M503.8 -9.69 C507.22 -6.39, 514.9 -6.82, 527.33 -1.23 M503.8 -9.69 C509.3 -7.75, 512.92 -5.79, 527.33 -1.23" stroke="#1e1e1e" stroke-width="2" fill="none"></path></g></g><mask id="mask-cKtw-XAXJJbgimJ7PaQM-"><rect x="0" y="0" fill="#fff" width="952.5" height="306"></rect><rect x="497.488037109375" y="196" fill="#000" width="181.02392578125" height="20" opacity="1"></rect></mask><g mask="url(#mask-nZow9GC5aKIDAhm06SnUM)" stroke-linecap="round"><g transform="translate(851.5 252) rotate(0 -263.5 0)"><path d="M0.84 0.59 C-87 0.57, -439.43 -1.02, -527.51 -1.09 M-0.18 -0.15 C-88.19 0.03, -440.63 -0.41, -528.73 -0.12" stroke="#1e1e1e" stroke-width="2" fill="none"></path></g><g transform="translate(851.5 252) rotate(0 -263.5 0)"><path d="M-505.24 -8.69 C-510.48 -7.13, -519.41 -5.11, -528.73 -0.12 M-505.24 -8.69 C-513.21 -5.57, -519.01 -4.04, -528.73 -0.12" stroke="#1e1e1e" stroke-width="2" fill="none"></path></g><g transform="translate(851.5 252) rotate(0 -263.5 0)"><path d="M-505.23 8.41 C-510.33 5.49, -519.26 3.05, -528.73 -0.12 M-505.23 8.41 C-513.31 6.18, -519.11 2.37, -528.73 -0.12" stroke="#1e1e1e" stroke-width="2" fill="none"></path></g></g><mask id="mask-nZow9GC5aKIDAhm06SnUM"><rect x="0" y="0" fill="#fff" width="1479.5" height="352"></rect><rect x="482.6320571899414" y="242" fill="#000" width="210.7358856201172" height="20" opacity="1"></rect></mask><g mask="url(#mask-KUsK1gpaLnfLdkE3XbkHu)" stroke-linecap="round"><g transform="translate(324.5 298) rotate(0 135 0)"><path d="M-0.51 -1.09 C44.24 -1.16, 224.15 -0.07, 269.36 0.15 M1.42 0.96 C46.5 1.05, 226.91 1.65, 271.74 1.77" stroke="#1e1e1e" stroke-width="2" fill="none"></path></g><g transform="translate(324.5 298) rotate(0 135 0)"><path d="M248.22 10.25 C255.06 6.15, 265.82 5.32, 271.74 1.77 M248.22 10.25 C256.67 6.69, 263.94 4.51, 271.74 1.77" stroke="#1e1e1e" stroke-width="2" fill="none"></path></g><g transform="translate(324.5 298) rotate(0 135 0)"><path d="M248.27 -6.85 C255.17 -4.63, 265.92 0.86, 271.74 1.77 M248.27 -6.85 C256.59 -4.94, 263.84 -1.64, 271.74 1.77" stroke="#1e1e1e" stroke-width="2" fill="none"></path></g></g><mask id="mask-KUsK1gpaLnfLdkE3XbkHu"><rect x="0" y="0" fill="#fff" width="695.5" height="398"></rect><rect x="393.98004150390625" y="288" fill="#000" width="131.0399169921875" height="20" opacity="1"></rect></mask><g mask="url(#mask-wza2mdP0mqvU_vd652q45)" stroke-linecap="round"><g transform="translate(85.5 393) rotate(0 119 0)"><path d="M-0.64 0.15 C39.24 0.37, 199.11 0.19, 238.74 0.24 M1.22 -0.81 C41.05 -0.88, 198.45 -1.62, 238.19 -1.76" stroke="#1e1e1e" stroke-width="2" fill="none"></path></g><g transform="translate(85.5 393) rotate(0 119 0)"><path d="M214.73 6.89 C221.1 6.03, 227.29 1.2, 238.19 -1.76 M214.73 6.89 C223.22 3.92, 231.49 1.69, 238.19 -1.76" stroke="#1e1e1e" stroke-width="2" fill="none"></path></g><g transform="translate(85.5 393) rotate(0 119 0)"><path d="M214.66 -10.21 C220.9 -6.67, 227.1 -7.1, 238.19 -1.76 M214.66 -10.21 C223.33 -7.39, 231.62 -3.82, 238.19 -1.76" stroke="#1e1e1e" stroke-width="2" fill="none"></path></g></g><mask id="mask-wza2mdP0mqvU_vd652q45"><rect x="0" y="0" fill="#fff" width="424.5" height="493"></rect><rect x="121.42804718017578" y="383" fill="#000" width="166.14390563964844" height="20" opacity="1"></rect></mask><g mask="url(#mask-Dvz2yXdDw7PZt9_XPyIZf)" stroke-linecap="round"><g transform="translate(324.5 439) rotate(0 135 0)"><path d="M0.74 0.24 C45.72 0.29, 224.13 0.66, 269.18 0.47 M-0.32 -0.68 C45.08 -1.01, 226.27 -1.51, 271.46 -1.41" stroke="#1e1e1e" stroke-width="2" fill="none"></path></g><g transform="translate(324.5 439) rotate(0 135 0)"><path d="M247.98 7.16 C254.16 3.53, 260.33 4.52, 271.46 -1.41 M247.98 7.16 C254.14 5.77, 258.7 3.68, 271.46 -1.41" stroke="#1e1e1e" stroke-width="2" fill="none"></path></g><g transform="translate(324.5 439) rotate(0 135 0)"><path d="M247.97 -9.94 C254.17 -9.35, 260.35 -4.14, 271.46 -1.41 M247.97 -9.94 C254.23 -7.49, 258.8 -5.75, 271.46 -1.41" stroke="#1e1e1e" stroke-width="2" fill="none"></path></g></g><mask id="mask-Dvz2yXdDw7PZt9_XPyIZf"><rect x="0" y="0" fill="#fff" width="695.5" height="539"></rect><rect x="379.4200439453125" y="429" fill="#000" width="160.159912109375" height="20" opacity="1"></rect></mask><g mask="url(#mask-9xfV1oVa-nr1jU6fR2Sen)" stroke-linecap="round"><g transform="translate(594.5 485) rotate(0 -135 0)"><path d="M-0.82 0.47 C-45.77 0.28, -224.22 -0.79, -268.96 -0.91 M0.95 -0.33 C-44.13 -0.42, -224.26 -0.05, -269.36 0.15" stroke="#1e1e1e" stroke-width="2" fill="none"></path></g><g transform="translate(594.5 485) rotate(0 -135 0)"><path d="M-245.89 -8.47 C-253.59 -3.77, -264.38 -1.15, -269.36 0.15 M-245.89 -8.47 C-252.1 -5.64, -258.92 -3.87, -269.36 0.15" stroke="#1e1e1e" stroke-width="2" fill="none"></path></g><g transform="translate(594.5 485) rotate(0 -135 0)"><path d="M-245.84 8.63 C-253.59 7.14, -264.4 3.57, -269.36 0.15 M-245.84 8.63 C-252.22 6.7, -259.06 3.71, -269.36 0.15" stroke="#1e1e1e" stroke-width="2" fill="none"></path></g></g><mask id="mask-9xfV1oVa-nr1jU6fR2Sen"><rect x="0" y="0" fill="#fff" width="965.5" height="585"></rect><rect x="384.74803924560547" y="465" fill="#000" width="149.50392150878906" height="40" opacity="1"></rect></mask><g mask="url(#mask-Ibo-_X9a_fMLg4u0A2rd7)" stroke-linecap="round"><g transform="translate(595.5 531) rotate(0 128 0)"><path d="M1.04 -0.91 C43.97 -1.03, 214.06 -0.51, 256.74 -0.26 M0.13 1.23 C43.04 1.25, 213.38 1.59, 256.18 1.14" stroke="#1e1e1e" stroke-width="2" fill="none"></path></g><g transform="translate(595.5 531) rotate(0 128 0)"><path d="M232.72 9.77 C236.61 8.8, 243.13 7.44, 256.18 1.14 M232.72 9.77 C240.83 6.37, 248.6 3.17, 256.18 1.14" stroke="#1e1e1e" stroke-width="2" fill="none"></path></g><g transform="translate(595.5 531) rotate(0 128 0)"><path d="M232.66 -7.33 C236.64 -4.34, 243.16 -1.73, 256.18 1.14 M232.66 -7.33 C240.83 -4.77, 248.62 -2.01, 256.18 1.14" stroke="#1e1e1e" stroke-width="2" fill="none"></path></g></g><mask id="mask-Ibo-_X9a_fMLg4u0A2rd7"><rect x="0" y="0" fill="#fff" width="952.5" height="631"></rect><rect x="646.9240417480469" y="511" fill="#000" width="153.15191650390625" height="40" opacity="1"></rect></mask><g mask="url(#mask-p5tUCe7XaLZjaESA8DMFi)" stroke-linecap="round"><g transform="translate(851.5 577) rotate(0 -128 0)"><path d="M0.74 -0.26 C-41.91 -0.01, -212.13 0.48, -254.87 0.58 M-0.33 -1.44 C-43.13 -1.47, -212.56 -1.18, -255.23 -1.23" stroke="#1e1e1e" stroke-width="2" fill="none"></path></g><g transform="translate(851.5 577) rotate(0 -128 0)"><path d="M-231.74 -9.79 C-241.33 -4.46, -249.01 -2.55, -255.23 -1.23 M-231.74 -9.79 C-239.99 -7.54, -247.8 -4.1, -255.23 -1.23" stroke="#1e1e1e" stroke-width="2" fill="none"></path></g><g transform="translate(851.5 577) rotate(0 -128 0)"><path d="M-231.73 7.31 C-241.2 6.03, -248.88 1.32, -255.23 -1.23 M-231.73 7.31 C-239.98 3.9, -247.79 1.67, -255.23 -1.23" stroke="#1e1e1e" stroke-width="2" fill="none"></path></g></g><mask id="mask-p5tUCe7XaLZjaESA8DMFi"><rect x="0" y="0" fill="#fff" width="1208.5" height="677"></rect><rect x="646.6200332641602" y="557" fill="#000" width="153.7599334716797" height="40" opacity="1"></rect></mask><g mask="url(#mask-qgUN0lNksqnPOflKINueZ)" stroke-linecap="round"><g transform="translate(594.5 623) rotate(0 -135 0)"><path d="M1.13 0.58 C-43.95 0.69, -224.52 0.54, -269.72 0.38 M0.26 -0.15 C-45.02 -0.4, -225.33 -1.7, -270.52 -1.55" stroke="#1e1e1e" stroke-width="2" fill="none"></path></g><g transform="translate(594.5 623) rotate(0 -135 0)"><path d="M-247 -10.04 C-254.56 -6.27, -263.41 -3.78, -270.52 -1.55 M-247 -10.04 C-253.84 -7.78, -259.27 -5.28, -270.52 -1.55" stroke="#1e1e1e" stroke-width="2" fill="none"></path></g><g transform="translate(594.5 623) rotate(0 -135 0)"><path d="M-247.05 7.06 C-254.55 4.64, -263.39 0.94, -270.52 -1.55 M-247.05 7.06 C-253.8 4.73, -259.22 2.64, -270.52 -1.55" stroke="#1e1e1e" stroke-width="2" fill="none"></path></g></g><mask id="mask-qgUN0lNksqnPOflKINueZ"><rect x="0" y="0" fill="#fff" width="965.5" height="723"></rect><rect x="383.46004486083984" y="603" fill="#000" width="152.0799102783203" height="40" opacity="1"></rect></mask><g transform="translate(67.12801361083984 32.5) rotate(0 17.871986389160156 10)"><text x="17.871986389160156" y="14.016" font-family="Virgil, Segoe UI Emoji" font-size="16px" fill="#000" text-anchor="middle" style="white-space: pre;" direction="ltr" dominant-baseline="alphabetic">User</text></g><g transform="translate(67.12801361083984 675.5) rotate(0 17.871986389160156 10)"><text x="17.871986389160156" y="14.016" font-family="Virgil, Segoe UI Emoji" font-size="16px" fill="#000" text-anchor="middle" style="white-space: pre;" direction="ltr" dominant-baseline="alphabetic">User</text></g><g transform="translate(293.280029296875 32.5) rotate(0 30.719970703125 10)"><text x="30.719970703125" y="14.016" font-family="Virgil, Segoe UI Emoji" font-size="16px" fill="#000" text-anchor="middle" style="white-space: pre;" direction="ltr" dominant-baseline="alphabetic">Browser</text></g><g transform="translate(293.280029296875 675.5) rotate(0 30.719970703125 10)"><text x="30.719970703125" y="14.016" font-family="Virgil, Segoe UI Emoji" font-size="16px" fill="#000" text-anchor="middle" style="white-space: pre;" direction="ltr" dominant-baseline="alphabetic">Browser</text></g><g transform="translate(572.0880126953125 32.5) rotate(0 22.9119873046875 10)"><text x="22.9119873046875" y="14.016" font-family="Virgil, Segoe UI Emoji" font-size="16px" fill="#000" text-anchor="middle" style="white-space: pre;" direction="ltr" dominant-baseline="alphabetic">Turbo</text></g><g transform="translate(572.0880126953125 675.5) rotate(0 22.9119873046875 10)"><text x="22.9119873046875" y="14.016" font-family="Virgil, Segoe UI Emoji" font-size="16px" fill="#000" text-anchor="middle" style="white-space: pre;" direction="ltr" dominant-baseline="alphabetic">Turbo</text></g><g transform="translate(827.3200149536133 32.5) rotate(0 24.67998504638672 10)"><text x="24.67998504638672" y="14.016" font-family="Virgil, Segoe UI Emoji" font-size="16px" fill="#000" text-anchor="middle" style="white-space: pre;" direction="ltr" dominant-baseline="alphabetic">Server</text></g><g transform="translate(827.3200149536133 675.5) rotate(0 24.67998504638672 10)"><text x="24.67998504638672" y="14.016" font-family="Virgil, Segoe UI Emoji" font-size="16px" fill="#000" text-anchor="middle" style="white-space: pre;" direction="ltr" dominant-baseline="alphabetic">Server</text></g><g transform="translate(134.82003784179688 94.5) rotate(0 69.67996215820312 10)"><text x="69.67996215820312" y="14.016" font-family="Virgil, Segoe UI Emoji" font-size="16px" fill="#000" text-anchor="middle" style="white-space: pre;" direction="ltr" dominant-baseline="alphabetic">Initial Page Load</text></g><g transform="translate(98.35604858398438 327.5) rotate(0 106.14395141601562 10)"><text x="106.14395141601562" y="14.016" font-family="Virgil, Segoe UI Emoji" font-size="16px" fill="#000" text-anchor="middle" style="white-space: pre;" direction="ltr" dominant-baseline="alphabetic">Navigation to Second Page</text></g><g transform="translate(119.15603637695312 140) rotate(0 84.59886573553086 19.779866191439794)"><text x="85.34396362304688" y="14.016" font-family="Virgil, Segoe UI Emoji" font-size="16px" fill="#1e1e1e" text-anchor="middle" style="white-space: pre;" direction="ltr" dominant-baseline="alphabetic">Enter URL / Request</text><text x="85.34396362304688" y="34.016" font-family="Virgil, Segoe UI Emoji" font-size="16px" fill="#1e1e1e" text-anchor="middle" style="white-space: pre;" direction="ltr" dominant-baseline="alphabetic">Page</text></g><g transform="translate(497.488037109375 196) rotate(0 90.69947494268416 9.932164699202389)"><text x="90.511962890625" y="14.016" font-family="Virgil, Segoe UI Emoji" font-size="16px" fill="#1e1e1e" text-anchor="middle" style="white-space: pre;" direction="ltr" dominant-baseline="alphabetic">GET initial page HTML</text></g><g transform="translate(482.6320571899414 242) rotate(0 104.92336950522377 9.748855936527264)"><text x="105.3679428100586" y="14.016" font-family="Virgil, Segoe UI Emoji" font-size="16px" fill="#1e1e1e" text-anchor="middle" style="white-space: pre;" direction="ltr" dominant-baseline="alphabetic">initial page HTML response</text></g><g transform="translate(393.98004150390625 288) rotate(0 66.13279997569043 10.339350885848688)"><text x="65.51995849609375" y="14.016" font-family="Virgil, Segoe UI Emoji" font-size="16px" fill="#1e1e1e" text-anchor="middle" style="white-space: pre;" direction="ltr" dominant-baseline="alphabetic">Initializes Turbo</text></g><g transform="translate(121.42804718017578 383) rotate(0 83.12431129217151 9.252783516945897)"><text x="83.07195281982422" y="14.016" font-family="Virgil, Segoe UI Emoji" font-size="16px" fill="#1e1e1e" text-anchor="middle" style="white-space: pre;" direction="ltr" dominant-baseline="alphabetic">Request second page</text></g><g transform="translate(379.4200439453125 429) rotate(0 80.65030480005777 9.548820277356526)"><text x="80.0799560546875" y="14.016" font-family="Virgil, Segoe UI Emoji" font-size="16px" fill="#1e1e1e" text-anchor="middle" style="white-space: pre;" direction="ltr" dominant-baseline="alphabetic">Intercept navigation</text></g><g transform="translate(384.74803924560547 465) rotate(0 75.55013627626943 19.78013492822646)"><text x="74.75196075439453" y="14.016" font-family="Virgil, Segoe UI Emoji" font-size="16px" fill="#1e1e1e" text-anchor="middle" style="white-space: pre;" direction="ltr" dominant-baseline="alphabetic">Update URL using </text><text x="74.75196075439453" y="34.016" font-family="Virgil, Segoe UI Emoji" font-size="16px" fill="#1e1e1e" text-anchor="middle" style="white-space: pre;" direction="ltr" dominant-baseline="alphabetic">History API</text></g><g transform="translate(646.9240417480469 511) rotate(0 77.01347756978589 20.2225335682121)"><text x="76.57595825195312" y="14.016" font-family="Virgil, Segoe UI Emoji" font-size="16px" fill="#1e1e1e" text-anchor="middle" style="white-space: pre;" direction="ltr" dominant-baseline="alphabetic">Fetch second page </text><text x="76.57595825195312" y="34.016" font-family="Virgil, Segoe UI Emoji" font-size="16px" fill="#1e1e1e" text-anchor="middle" style="white-space: pre;" direction="ltr" dominant-baseline="alphabetic">HTML</text></g><g transform="translate(646.6200332641602 557) rotate(0 77.6365570948692 19.568806951786655)"><text x="76.87996673583984" y="14.016" font-family="Virgil, Segoe UI Emoji" font-size="16px" fill="#1e1e1e" text-anchor="middle" style="white-space: pre;" direction="ltr" dominant-baseline="alphabetic">second page HTML </text><text x="76.87996673583984" y="34.016" font-family="Virgil, Segoe UI Emoji" font-size="16px" fill="#1e1e1e" text-anchor="middle" style="white-space: pre;" direction="ltr" dominant-baseline="alphabetic">response</text></g><g transform="translate(383.46004486083984 603) rotate(0 76.34549257021865 19.52895768256036)"><text x="76.03995513916016" y="14.016" font-family="Virgil, Segoe UI Emoji" font-size="16px" fill="#1e1e1e" text-anchor="middle" style="white-space: pre;" direction="ltr" dominant-baseline="alphabetic">Replace page body </text><text x="76.03995513916016" y="34.016" font-family="Virgil, Segoe UI Emoji" font-size="16px" fill="#1e1e1e" text-anchor="middle" style="white-space: pre;" direction="ltr" dominant-baseline="alphabetic">content</text></g></svg>